PathFileType	4	(X/Y/Z)	22_2_12_p0_0-174_filt_butterworth.trc
DataRate	CameraRate	NumFrames	NumMarkers	Units	OrigDataRate	OrigDataStartFrame	OrigNumFrames
60.0	60.0	6	27	m	60.0	65	174
Frame#	Time	RHip			RKnee			RAnkle			RBigToe			RSmallToe			RHeel			LHip			LKnee			LAnkle			LBigToe			LSmallToe			LHeel			Neck			Head			Nose			RShoulder			RElbow			RWrist			RThumb			RIndex			RPinky			LShoulder			LElbow			LWrist			LThumb			LIndex			LPinky			
		X1	Y1	Z1	X2	Y2	Z2	X3	Y3	Z3	X4	Y4	Z4	X5	Y5	Z5	X6	Y6	Z6	X7	Y7	Z7	X8	Y8	Z8	X9	Y9	Z9	X10	Y10	Z10	X11	Y11	Z11	X12	Y12	Z12	X13	Y13	Z13	X14	Y14	Z14	X15	Y15	Z15	X16	Y16	Z16	X17	Y17	Z17	X18	Y18	Z18	X19	Y19	Z19	X20	Y20	Z20	X21	Y21	Z21	X22	Y22	Z22	X23	Y23	Z23	X24	Y24	Z24	X25	Y25	Z25	X26	Y26	Z26	X27	Y27	Z27	
65	1.0833333333333333	0.24220757977557014	0.6480835390549625	0.9174578035610753	0.2595229415715198	0.7301889020044721	1.3555057922845388	0.28434368526627773	0.8919955355695386	1.8179894979068085	0.24150034039458584	0.6980511619828317	1.8811979808878	0.30266683365685854	0.7119537307046766	1.8689252423704428	0.2763720191910868	0.9668975487034024	1.882953687923447	0.02331645012535764	0.641871234013235	0.9164016138859417	0.054407144659534695	0.7506558018582269	1.3665885568847171	0.09089793702020726	0.8880609409755833	1.8227944047620368	0.13075190605260592	0.7215219807242697	1.8860324046020862	0.06467965720898554	0.704637839099807	1.8657050000911561	0.09633695335248882	0.9469966438542334	1.8841296692899716	0.13371060755990927	0.4354216246478621	0.43055800085792767	0.15253101352890056	0.2140453530103107	0.21384794218685618	0.19772124798864985	0.22629382323526126	0.36310013259636537	0.2682442856972451	0.4889940580721963	0.4639773035255125	0.34597085239159586	0.5972713635884204	0.7185257824198928	0.3754617226941247	0.6472115513673186	0.9855730125919302	0.3418779082647344	0.5765133172209087	1.1087826420047895	0.38968979553579347	0.6337169813062347	1.1419907104082134	0.4027352181948808	0.6859129093293935	1.139688222506738	-0.018595541849508495	0.37593959066915017	0.47121512454366615	0.021741554591313078	0.29990593347379096	0.7171074950706622	0.12782406971172292	0.2758796495140118	0.5202660289067043	0.13916845382377904	0.2587361395527837	0.4466361702067568	0.15675582679483846	0.30042281430852735	0.42480824090930297	0.16853857926099725	0.26742528013733957	0.46439827261837674
66	1.1	0.2425625250394402	0.6485097876226362	0.9179466214798426	0.2591709448434516	0.7323137652177589	1.3564320272031833	0.2840168436061241	0.8931512154007144	1.818189239879394	0.24346653956615277	0.7028496630997947	1.8827478424660213	0.30424885619485725	0.7137350334045103	1.8702003181371802	0.2763387884155208	0.966284106064035	1.8823874925873043	0.023665793267282336	0.6422675330786015	0.9176430361759635	0.054354621278868344	0.750668383913923	1.3666908424864883	0.0903526026906546	0.8869914365383966	1.8208531858046786	0.12960842938918615	0.719807316755757	1.885546238547107	0.06369318049824493	0.7073267369928617	1.866710563164822	0.09640511597967848	0.9464562368068282	1.8824510789844004	0.13422828041478221	0.43425358261088465	0.43351038165696776	0.1585313343527769	0.20757005336566797	0.21767637323076808	0.1993358126503606	0.22392920860947105	0.36579693443784533	0.27007466277182224	0.48865516546738863	0.464434969237272	0.34755498681792324	0.5998926045513453	0.7192205049072709	0.37542497278590864	0.647173263158704	0.9854053452534502	0.34420615940842364	0.5800765655658678	1.1080048982838608	0.38982327891319685	0.6405293930814322	1.1426425632638595	0.40264716380350496	0.6861628073780419	1.1396254771443524	-0.017052047311915015	0.37240257888734263	0.4732875314896698	0.022892560693169094	0.29759921669768424	0.7202056108588468	0.130206847456715	0.2727950656634634	0.5235394863120553	0.14382196642513873	0.24771156813205003	0.4509733726263866	0.16043781740100155	0.2944658132434903	0.4282702077289548	0.17649701760547118	0.24845726896935647	0.4720735781232904
67	1.1166666666666667	0.2435272575995154	0.6486458410479456	0.9184948198943761	0.260230051514949	0.7384956813261561	1.3584378055085438	0.28364786732254593	0.8973097020181371	1.8185842316936784	0.24478532783060858	0.7064731118066955	1.883413023132709	0.30633804680847154	0.7176232732077417	1.8719650603664546	0.27617916289060745	0.9664090130500034	1.8823917456694694	0.024223663216612828	0.6426529222588868	0.9185629838510149	0.05423046979349102	0.7504875417717913	1.3666235400871294	0.08993688220092785	0.8859926795843708	1.8193808790675923	0.12873870873904342	0.7158588112274118	1.8841035798218084	0.06303624428883123	0.7097227381408998	1.8675264475370594	0.09721166018775437	0.9471663604662792	1.8799778364352857	0.1348675967174718	0.43116406076860164	0.4373793519385094	0.16435318813235716	0.20044186193142693	0.2219154677305467	0.20052440573628194	0.2207794410756403	0.3695439558655756	0.27219168572556696	0.48873991878387685	0.46557062681406736	0.34960205841017833	0.6037477550209609	0.719978190022935	0.37540105178934297	0.647106859569929	0.9853664960619709	0.34671324581906654	0.5845833334193324	1.1077957251835815	0.3896246364510312	0.644519254039551	1.143163330937689	0.40255617523373044	0.6863511457259475	1.1395712100830335	-0.015799214276525437	0.36929666449956017	0.47535590250679727	0.023956318242840714	0.2961959539479898	0.7231299571907722	0.13223053470011326	0.270474929532312	0.5272119745642373	0.148391205081641	0.2336091480860787	0.4555556767573258	0.1651663254390273	0.28621276538464485	0.432807581089496	0.1860850601744181	0.22647402070230366	0.47867357802273836
68	1.1333333333333333	0.24482149953668017	0.6487034854885302	0.9194497272668535	0.26221601723696697	0.7480679570246408	1.3611166495912101	0.28339427834239833	0.903108934088489	1.8189457010012071	0.24534950298016844	0.7076393725354753	1.8836038408356077	0.3080011351873251	0.7222357834569242	1.8735648975460346	0.2759504305155002	0.9684768021687041	1.8826728717043673	0.024725668558172317	0.6430631975190022	0.9194469643195133	0.05404232485445241	0.7502024651418806	1.3661477959667068	0.08968840621028112	0.8851806751124407	1.8187457054501244	0.1284832681061784	0.7123978237341253	1.8827775480642719	0.06287966721808118	0.7109745885691676	1.8678766641608242	0.09896989223615961	0.9497470764726315	1.8778101802338996	0.1356094609452939	0.4269305390788436	0.4410678971592981	0.16916717661130892	0.1930855329635094	0.2265760163257151	0.20134571829327857	0.2184181354581043	0.37443345915362736	0.2746089968184747	0.4877863609269402	0.46816265075831065	0.35115200992054907	0.6066855246749003	0.7208332495661048	0.37549239987648414	0.6471802003169862	0.9861726620321688	0.34797531803078663	0.5880810573757067	1.1078654599446631	0.3895251978790312	0.6458957030893033	1.1434881617975687	0.402520591377529	0.6864043613479516	1.1395876782793055	-0.015073408885685258	0.3671634690958522	0.47660716169243816	0.024653097810904905	0.2961276401918341	0.7254430877312754	0.13367048374942278	0.2695249601695339	0.5309549030842213	0.1534664848603497	0.2222269100455856	0.4591496290588555	0.17129357183079924	0.2771950896380078	0.4371556566481874	0.1944102499819032	0.21558878023732322	0.4820236488424615
69	1.15	0.24585761636477346	0.648857171681851	0.9204454858262623	0.264270338002196	0.7573459503130274	1.3632545140108037	0.28326766536837733	0.9079318644340657	1.8191310704544654	0.24541470959393963	0.706245731086653	1.8839121937608176	0.3087306513515864	0.724528478606088	1.874297686993279	0.27575523452856815	0.9731747555922641	1.8825167904953224	0.02515238519949213	0.6433649123494206	0.9201991347840027	0.05395005588005103	0.7503648799718102	1.365167411835341	0.08943302462679258	0.8846857940452652	1.8185138138606598	0.12892618656633834	0.7123812825367095	1.8827322567792133	0.06293990136055228	0.7113448800623448	1.8679310178058672	0.10145948227842168	0.9543752918504416	1.8768707833847211	0.13606227906124546	0.42352979786827416	0.44352350661253004	0.17290532375251394	0.18665766170687376	0.2312792709030392	0.20228977008984825	0.21732153463751674	0.3800820701376454	0.2768544216435293	0.4851150483226621	0.4723053329013718	0.35173168765325236	0.6081286218707992	0.7219013306088115	0.37579069078087385	0.6474873935035941	0.9882369969971257	0.3479163629003992	0.5897376932936114	1.108002514959868	0.3895876741397251	0.6458900278355966	1.143770191967452	0.4025384873862602	0.6864102237593738	1.1396254291628647	-0.014851364581038883	0.36647284464170127	0.4769957492340289	0.02501772055671869	0.29678319225980926	0.7271349825720748	0.13513787795267687	0.2686012351380857	0.5340605110015326	0.1581576979506367	0.21470142376905976	0.461141936638229	0.17820675004745462	0.2672137340688801	0.4399893060181753	0.19982469743357695	0.22059680799064052	0.48140267229775185
70	1.1666666666666667	0.24632272559309937	0.6492466486482631	0.9213782774990802	0.2656265899417268	0.762853902492274	1.3643881062455303	0.28300730842794225	0.9117458951091835	1.819263216329054	0.2450638272589561	0.7024880715742147	1.8838931547090376	0.3088766524524709	0.7226600852988548	1.8738273009571433	0.2757626568380991	0.9792421515411464	1.8811427182087752	0.025912444998740472	0.6434525760506923	0.9209398117522033	0.054377584948033304	0.7520017061119072	1.3641367239413478	0.08909416208256206	0.8852541205166309	1.8180552307395141	0.12937713225457062	0.7143195419361225	1.8833869132936483	0.06292726562619687	0.7113600945364439	1.8678967025976554	0.10485947508374202	0.9623679684675837	1.8779156100849186	0.13615708087692968	0.42203723518073966	0.44467198826703447	0.176348174060675	0.18194791656621406	0.23531832686592644	0.20385119802936985	0.21610317793600564	0.38558602573492223	0.2785532051923046	0.4812014755683726	0.47703180308705223	0.351560050658994	0.6098210227930005	0.7230977140030714	0.37620264442064366	0.6479594278129127	0.9909393841323374	0.34751675683707045	0.5902456698602924	1.108101177572853	0.38985341191619605	0.6460433775517678	1.1448723073107305	0.4025128376383199	0.6864569279134949	1.139575568126093	-0.014781018271390611	0.3664170753488372	0.47731282947239756	0.02528777010245893	0.2974116832795038	0.7285990483125788	0.13699802498684777	0.2660077854706056	0.5361420071431635	0.1617132371308045	0.20922678683012547	0.4618788371536301	0.184439039488968	0.2565867802262385	0.44130449402696514	0.2028354758908302	0.23218101696134996	0.4786320022850419
